# MagicaVoxel @ Ephtracy

# group
g car_sport_2

# material
mtllib car_sport_2.mtl
usemtl palette

# normals
vn -1 0 0
vn 1 0 0
vn 0 0 1
vn 0 0 -1
vn 0 -1 0
vn 0 1 0

# texcoords
vt 0.185547 0.5
vt 0.208984 0.5
vt 0.958984 0.5
vt 0.970703 0.5
vt 0.986328 0.5
vt 0.990234 0.5
vt 0.994141 0.5

# verts
v -5 4 5
v -5 4 3
v -5 5 5
v -5 5 3
v -4 0 11
v -4 0 8
v -4 0 2
v -4 0 -1
v -4 1 13
v -4 1 11
v -4 1 10
v -4 1 9
v -4 1 8
v -4 1 2
v -4 1 1
v -4 1 -0
v -4 1 -1
v -4 1 -6
v -4 2 13
v -4 2 11
v -4 2 10
v -4 2 9
v -4 2 8
v -4 2 2
v -4 2 1
v -4 2 -0
v -4 2 -1
v -4 2 -6
v -4 3 11
v -4 3 8
v -4 3 2
v -4 3 -1
v -4 4 5
v -4 4 3
v -4 5 13
v -4 5 5
v -4 5 3
v -4 5 -6
v -4 6 14
v -4 6 12
v -4 7 14
v -4 7 12
v -3 5 9
v -3 5 8
v -3 5 3
v -3 5 2
v -3 8 8
v -3 8 3
v -3 9 9
v -3 9 2
v -1 5 13
v -1 5 11
v -1 5 -1
v -1 5 -5
v -1 6 13
v -1 6 12
v -1 6 11
v -1 6 -1
v -1 6 -5
v 3 0 11
v 3 0 8
v 3 0 2
v 3 0 -1
v 3 1 11
v 3 1 8
v 3 1 2
v 3 1 -1
v -2 0 11
v -2 0 8
v -2 0 2
v -2 0 -1
v -2 1 11
v -2 1 8
v -2 1 2
v -2 1 -1
v 2 5 13
v 2 5 11
v 2 5 -1
v 2 5 -5
v 2 6 13
v 2 6 12
v 2 6 11
v 2 6 -1
v 2 6 -5
v 4 5 9
v 4 5 8
v 4 5 3
v 4 5 2
v 4 8 8
v 4 8 3
v 4 9 9
v 4 9 2
v 5 0 11
v 5 0 8
v 5 0 2
v 5 0 -1
v 5 1 13
v 5 1 11
v 5 1 10
v 5 1 9
v 5 1 8
v 5 1 2
v 5 1 1
v 5 1 -0
v 5 1 -1
v 5 1 -6
v 5 2 13
v 5 2 11
v 5 2 10
v 5 2 9
v 5 2 8
v 5 2 2
v 5 2 1
v 5 2 -0
v 5 2 -1
v 5 2 -6
v 5 3 11
v 5 3 8
v 5 3 2
v 5 3 -1
v 5 4 5
v 5 4 3
v 5 5 13
v 5 5 5
v 5 5 3
v 5 5 -6
v 5 6 14
v 5 6 12
v 5 7 14
v 5 7 12
v 6 4 5
v 6 4 3
v 6 5 5
v 6 5 3
v -4 6 14
v -4 7 14
v 0 6 14
v 0 7 14
v 1 6 14
v 1 7 14
v 5 6 14
v 5 7 14
v -4 1 13
v -4 2 13
v -4 5 13
v -1 2 13
v -1 5 13
v -1 6 13
v 0 2 13
v 0 6 13
v 1 2 13
v 1 6 13
v 2 2 13
v 2 5 13
v 2 6 13
v 5 1 13
v 5 2 13
v 5 5 13
v -4 0 11
v -4 1 11
v -2 0 11
v -2 1 11
v 3 0 11
v 3 1 11
v 5 0 11
v 5 1 11
v -3 5 9
v -3 9 9
v -1 5 9
v 0 5 9
v 1 5 9
v 2 5 9
v 4 5 9
v 4 9 9
v -5 4 5
v -5 5 5
v -4 4 5
v -4 5 5
v 5 4 5
v 5 5 5
v 6 4 5
v 6 5 5
v -4 0 2
v -4 1 2
v -2 0 2
v -2 1 2
v 3 0 2
v 3 1 2
v 5 0 2
v 5 1 2
v -1 5 -1
v -1 6 -1
v 0 5 -1
v 0 6 -1
v 1 5 -1
v 1 6 -1
v 2 5 -1
v 2 6 -1
v -4 6 12
v -4 7 12
v -1 6 12
v 0 6 12
v 0 7 12
v 1 6 12
v 1 7 12
v 2 6 12
v 5 6 12
v 5 7 12
v -1 5 11
v -1 6 11
v 0 5 11
v 0 6 11
v 1 5 11
v 1 6 11
v 2 5 11
v 2 6 11
v -4 0 8
v -4 1 8
v -2 0 8
v -2 1 8
v 3 0 8
v 3 1 8
v 5 0 8
v 5 1 8
v -5 4 3
v -5 5 3
v -4 4 3
v -4 5 3
v 5 4 3
v 5 5 3
v 6 4 3
v 6 5 3
v -3 5 2
v -3 9 2
v -2 5 2
v -2 8 2
v -1 5 2
v 0 5 2
v 1 5 2
v 2 5 2
v 3 5 2
v 3 8 2
v 4 5 2
v 4 9 2
v -4 0 -1
v -4 1 -1
v -2 0 -1
v -2 1 -1
v 3 0 -1
v 3 1 -1
v 5 0 -1
v 5 1 -1
v -1 5 -5
v -1 6 -5
v 0 5 -5
v 0 6 -5
v 1 5 -5
v 1 6 -5
v 2 5 -5
v 2 6 -5
v -4 1 -6
v -4 2 -6
v -4 5 -6
v -3 3 -6
v -3 4 -6
v -2 3 -6
v -2 4 -6
v -1 2 -6
v -1 5 -6
v 0 2 -6
v 0 5 -6
v 1 2 -6
v 1 5 -6
v 2 2 -6
v 2 5 -6
v 3 3 -6
v 3 4 -6
v 4 3 -6
v 4 4 -6
v 5 1 -6
v 5 2 -6
v 5 5 -6
v -4 0 11
v -2 0 11
v 3 0 11
v 5 0 11
v -4 0 8
v -2 0 8
v 3 0 8
v 5 0 8
v -4 0 2
v -2 0 2
v 3 0 2
v 5 0 2
v -4 0 -1
v -2 0 -1
v 3 0 -1
v 5 0 -1
v -4 1 13
v 5 1 13
v -4 1 11
v -2 1 11
v 3 1 11
v 5 1 11
v -4 1 8
v -2 1 8
v 3 1 8
v 5 1 8
v -4 1 2
v -2 1 2
v 3 1 2
v 5 1 2
v -4 1 -1
v -2 1 -1
v 3 1 -1
v 5 1 -1
v -4 1 -6
v 5 1 -6
v -5 4 5
v -4 4 5
v 5 4 5
v 6 4 5
v -5 4 3
v -4 4 3
v 5 4 3
v 6 4 3
v -4 6 14
v 0 6 14
v 1 6 14
v 5 6 14
v -1 6 13
v 0 6 13
v 1 6 13
v 2 6 13
v -4 6 12
v -1 6 12
v 2 6 12
v 5 6 12
v -4 5 13
v -1 5 13
v 2 5 13
v 5 5 13
v -1 5 11
v 0 5 11
v 1 5 11
v 2 5 11
v -3 5 9
v -1 5 9
v 0 5 9
v 1 5 9
v 2 5 9
v 4 5 9
v -3 5 8
v 4 5 8
v -5 5 5
v -4 5 5
v 5 5 5
v 6 5 5
v -5 5 3
v -4 5 3
v -3 5 3
v 4 5 3
v 5 5 3
v 6 5 3
v -3 5 2
v -2 5 2
v -1 5 2
v 0 5 2
v 1 5 2
v 2 5 2
v 3 5 2
v 4 5 2
v -1 5 -1
v 0 5 -1
v 1 5 -1
v 2 5 -1
v -1 5 -5
v 0 5 -5
v 1 5 -5
v 2 5 -5
v -4 5 -6
v -1 5 -6
v 0 5 -6
v 1 5 -6
v 2 5 -6
v 5 5 -6
v -1 6 12
v 0 6 12
v 1 6 12
v 2 6 12
v -1 6 11
v 0 6 11
v 1 6 11
v 2 6 11
v -1 6 -1
v 0 6 -1
v 1 6 -1
v 2 6 -1
v -1 6 -5
v 0 6 -5
v 1 6 -5
v 2 6 -5
v -4 7 14
v 0 7 14
v 1 7 14
v 5 7 14
v -4 7 12
v 0 7 12
v 1 7 12
v 5 7 12
v -3 9 9
v 4 9 9
v -3 9 2
v 4 9 2

# faces
f 3/2/1 2/2/1 1/2/1
f 4/2/1 2/2/1 3/2/1
f 10/7/1 6/7/1 5/7/1
f 11/7/1 6/7/1 10/7/1
f 12/7/1 6/7/1 11/7/1
f 13/7/1 6/7/1 12/7/1
f 14/7/1 8/7/1 7/7/1
f 15/7/1 8/7/1 14/7/1
f 16/7/1 8/7/1 15/7/1
f 17/7/1 8/7/1 16/7/1
f 19/5/1 10/5/1 9/5/1
f 20/7/1 11/7/1 10/7/1
f 20/5/1 10/5/1 19/5/1
f 21/4/1 12/4/1 11/4/1
f 21/7/1 11/7/1 20/7/1
f 22/7/1 13/7/1 12/7/1
f 22/4/1 12/4/1 21/4/1
f 23/5/1 14/5/1 13/5/1
f 23/7/1 13/7/1 22/7/1
f 24/7/1 15/7/1 14/7/1
f 24/5/1 14/5/1 23/5/1
f 25/4/1 16/4/1 15/4/1
f 25/7/1 15/7/1 24/7/1
f 26/7/1 17/7/1 16/7/1
f 26/4/1 16/4/1 25/4/1
f 27/5/1 18/5/1 17/5/1
f 27/7/1 17/7/1 26/7/1
f 28/5/1 18/5/1 27/5/1
f 29/7/1 21/7/1 20/7/1
f 29/1/1 20/1/1 19/1/1
f 29/7/1 22/7/1 21/7/1
f 29/7/1 23/7/1 22/7/1
f 30/1/1 24/1/1 23/1/1
f 30/7/1 23/7/1 29/7/1
f 31/7/1 26/7/1 25/7/1
f 31/1/1 24/1/1 30/1/1
f 31/7/1 27/7/1 26/7/1
f 31/7/1 25/7/1 24/7/1
f 32/1/1 28/1/1 27/1/1
f 32/7/1 27/7/1 31/7/1
f 33/1/1 30/1/1 29/1/1
f 33/1/1 31/1/1 30/1/1
f 33/1/1 32/1/1 31/1/1
f 34/1/1 32/1/1 33/1/1
f 35/1/1 29/1/1 19/1/1
f 35/1/1 33/1/1 29/1/1
f 36/1/1 33/1/1 35/1/1
f 37/1/1 32/1/1 34/1/1
f 38/1/1 28/1/1 32/1/1
f 38/1/1 32/1/1 37/1/1
f 41/2/1 40/2/1 39/2/1
f 42/2/1 40/2/1 41/2/1
f 47/3/1 44/3/1 43/3/1
f 47/7/1 45/7/1 44/7/1
f 48/3/1 46/3/1 45/3/1
f 48/7/1 45/7/1 47/7/1
f 49/3/1 47/3/1 43/3/1
f 49/3/1 48/3/1 47/3/1
f 50/3/1 46/3/1 48/3/1
f 50/3/1 48/3/1 49/3/1
f 55/2/1 52/2/1 51/2/1
f 56/2/1 52/2/1 55/2/1
f 57/2/1 52/2/1 56/2/1
f 58/2/1 54/2/1 53/2/1
f 59/2/1 54/2/1 58/2/1
f 64/7/1 61/7/1 60/7/1
f 65/7/1 61/7/1 64/7/1
f 66/7/1 63/7/1 62/7/1
f 67/7/1 63/7/1 66/7/1
f 68/7/2 69/7/2 72/7/2
f 72/7/2 69/7/2 73/7/2
f 70/7/2 71/7/2 74/7/2
f 74/7/2 71/7/2 75/7/2
f 76/2/2 77/2/2 80/2/2
f 80/2/2 77/2/2 81/2/2
f 81/2/2 77/2/2 82/2/2
f 78/2/2 79/2/2 83/2/2
f 83/2/2 79/2/2 84/2/2
f 85/3/2 86/3/2 89/3/2
f 86/7/2 87/7/2 89/7/2
f 87/3/2 88/3/2 90/3/2
f 89/7/2 87/7/2 90/7/2
f 85/3/2 89/3/2 91/3/2
f 89/3/2 90/3/2 91/3/2
f 90/3/2 88/3/2 92/3/2
f 91/3/2 90/3/2 92/3/2
f 93/7/2 94/7/2 98/7/2
f 98/7/2 94/7/2 99/7/2
f 99/7/2 94/7/2 100/7/2
f 100/7/2 94/7/2 101/7/2
f 95/7/2 96/7/2 102/7/2
f 102/7/2 96/7/2 103/7/2
f 103/7/2 96/7/2 104/7/2
f 104/7/2 96/7/2 105/7/2
f 97/5/2 98/5/2 107/5/2
f 98/7/2 99/7/2 108/7/2
f 107/5/2 98/5/2 108/5/2
f 99/4/2 100/4/2 109/4/2
f 108/7/2 99/7/2 109/7/2
f 100/7/2 101/7/2 110/7/2
f 109/4/2 100/4/2 110/4/2
f 101/5/2 102/5/2 111/5/2
f 110/7/2 101/7/2 111/7/2
f 102/7/2 103/7/2 112/7/2
f 111/5/2 102/5/2 112/5/2
f 103/4/2 104/4/2 113/4/2
f 112/7/2 103/7/2 113/7/2
f 104/7/2 105/7/2 114/7/2
f 113/4/2 104/4/2 114/4/2
f 105/5/2 106/5/2 115/5/2
f 114/7/2 105/7/2 115/7/2
f 115/5/2 106/5/2 116/5/2
f 108/7/2 109/7/2 117/7/2
f 107/1/2 108/1/2 117/1/2
f 109/7/2 110/7/2 117/7/2
f 110/7/2 111/7/2 117/7/2
f 111/1/2 112/1/2 118/1/2
f 117/7/2 111/7/2 118/7/2
f 113/7/2 114/7/2 119/7/2
f 118/1/2 112/1/2 119/1/2
f 114/7/2 115/7/2 119/7/2
f 112/7/2 113/7/2 119/7/2
f 115/1/2 116/1/2 120/1/2
f 119/7/2 115/7/2 120/7/2
f 117/1/2 118/1/2 121/1/2
f 118/1/2 119/1/2 121/1/2
f 119/1/2 120/1/2 121/1/2
f 121/1/2 120/1/2 122/1/2
f 107/1/2 117/1/2 123/1/2
f 117/1/2 121/1/2 123/1/2
f 123/1/2 121/1/2 124/1/2
f 122/1/2 120/1/2 125/1/2
f 120/1/2 116/1/2 126/1/2
f 125/1/2 120/1/2 126/1/2
f 127/2/2 128/2/2 129/2/2
f 129/2/2 128/2/2 130/2/2
f 131/2/2 132/2/2 133/2/2
f 133/2/2 132/2/2 134/2/2
f 137/2/3 136/2/3 135/2/3
f 138/2/3 136/2/3 137/2/3
f 139/6/3 138/6/3 137/6/3
f 140/6/3 138/6/3 139/6/3
f 141/2/3 140/2/3 139/2/3
f 142/2/3 140/2/3 141/2/3
f 146/5/3 144/5/3 143/5/3
f 146/1/3 145/1/3 144/1/3
f 147/1/3 145/1/3 146/1/3
f 149/5/3 146/5/3 143/5/3
f 149/2/3 148/2/3 147/2/3
f 149/2/3 147/2/3 146/2/3
f 150/2/3 148/2/3 149/2/3
f 151/5/3 149/5/3 143/5/3
f 151/6/3 150/6/3 149/6/3
f 152/6/3 150/6/3 151/6/3
f 153/5/3 151/5/3 143/5/3
f 153/2/3 152/2/3 151/2/3
f 154/2/3 152/2/3 153/2/3
f 155/2/3 152/2/3 154/2/3
f 156/5/3 153/5/3 143/5/3
f 157/1/3 154/1/3 153/1/3
f 157/5/3 153/5/3 156/5/3
f 158/1/3 154/1/3 157/1/3
f 161/7/3 160/7/3 159/7/3
f 162/7/3 160/7/3 161/7/3
f 165/7/3 164/7/3 163/7/3
f 166/7/3 164/7/3 165/7/3
f 169/3/3 168/3/3 167/3/3
f 170/3/3 168/3/3 169/3/3
f 171/3/3 168/3/3 170/3/3
f 172/3/3 168/3/3 171/3/3
f 173/3/3 168/3/3 172/3/3
f 174/3/3 168/3/3 173/3/3
f 177/2/3 176/2/3 175/2/3
f 178/2/3 176/2/3 177/2/3
f 181/2/3 180/2/3 179/2/3
f 182/2/3 180/2/3 181/2/3
f 185/7/3 184/7/3 183/7/3
f 186/7/3 184/7/3 185/7/3
f 189/7/3 188/7/3 187/7/3
f 190/7/3 188/7/3 189/7/3
f 193/2/3 192/2/3 191/2/3
f 194/2/3 192/2/3 193/2/3
f 195/6/3 194/6/3 193/6/3
f 196/6/3 194/6/3 195/6/3
f 197/2/3 196/2/3 195/2/3
f 198/2/3 196/2/3 197/2/3
f 199/2/4 200/2/4 201/2/4
f 201/2/4 200/2/4 202/2/4
f 202/2/4 200/2/4 203/2/4
f 202/6/4 203/6/4 204/6/4
f 204/6/4 203/6/4 205/6/4
f 204/2/4 205/2/4 206/2/4
f 206/2/4 205/2/4 207/2/4
f 207/2/4 205/2/4 208/2/4
f 209/2/4 210/2/4 211/2/4
f 211/2/4 210/2/4 212/2/4
f 211/6/4 212/6/4 213/6/4
f 213/6/4 212/6/4 214/6/4
f 213/2/4 214/2/4 215/2/4
f 215/2/4 214/2/4 216/2/4
f 217/7/4 218/7/4 219/7/4
f 219/7/4 218/7/4 220/7/4
f 221/7/4 222/7/4 223/7/4
f 223/7/4 222/7/4 224/7/4
f 225/2/4 226/2/4 227/2/4
f 227/2/4 226/2/4 228/2/4
f 229/2/4 230/2/4 231/2/4
f 231/2/4 230/2/4 232/2/4
f 233/3/4 234/3/4 235/3/4
f 235/3/4 234/3/4 236/3/4
f 235/7/4 236/7/4 237/7/4
f 237/7/4 236/7/4 238/7/4
f 238/7/4 236/7/4 239/7/4
f 239/7/4 236/7/4 240/7/4
f 240/7/4 236/7/4 241/7/4
f 236/3/4 234/3/4 242/3/4
f 241/7/4 236/7/4 242/7/4
f 241/3/4 242/3/4 243/3/4
f 242/3/4 234/3/4 244/3/4
f 243/3/4 242/3/4 244/3/4
f 245/7/4 246/7/4 247/7/4
f 247/7/4 246/7/4 248/7/4
f 249/7/4 250/7/4 251/7/4
f 251/7/4 250/7/4 252/7/4
f 253/2/4 254/2/4 255/2/4
f 255/2/4 254/2/4 256/2/4
f 255/6/4 256/6/4 257/6/4
f 257/6/4 256/6/4 258/6/4
f 257/2/4 258/2/4 259/2/4
f 259/2/4 258/2/4 260/2/4
f 262/1/4 263/1/4 264/1/4
f 264/1/4 263/1/4 265/1/4
f 262/1/4 264/1/4 266/1/4
f 264/3/4 265/3/4 266/3/4
f 265/1/4 263/1/4 267/1/4
f 266/3/4 265/3/4 267/3/4
f 261/5/4 262/5/4 268/5/4
f 262/1/4 266/1/4 268/1/4
f 266/1/4 267/1/4 268/1/4
f 267/1/4 263/1/4 269/1/4
f 268/1/4 267/1/4 269/1/4
f 261/5/4 268/5/4 270/5/4
f 268/2/4 269/2/4 270/2/4
f 270/2/4 269/2/4 271/2/4
f 261/5/4 270/5/4 272/5/4
f 270/6/4 271/6/4 272/6/4
f 272/6/4 271/6/4 273/6/4
f 261/5/4 272/5/4 274/5/4
f 272/2/4 273/2/4 274/2/4
f 274/2/4 273/2/4 275/2/4
f 274/1/4 275/1/4 276/1/4
f 276/1/4 275/1/4 277/1/4
f 274/1/4 276/1/4 278/1/4
f 276/3/4 277/3/4 278/3/4
f 277/1/4 275/1/4 279/1/4
f 278/3/4 277/3/4 279/3/4
f 261/5/4 274/5/4 280/5/4
f 274/1/4 278/1/4 281/1/4
f 280/5/4 274/5/4 281/5/4
f 278/1/4 279/1/4 281/1/4
f 279/1/4 275/1/4 282/1/4
f 281/1/4 279/1/4 282/1/4
f 287/7/5 284/7/5 283/7/5
f 288/7/5 284/7/5 287/7/5
f 289/7/5 286/7/5 285/7/5
f 290/7/5 286/7/5 289/7/5
f 295/7/5 292/7/5 291/7/5
f 296/7/5 292/7/5 295/7/5
f 297/7/5 294/7/5 293/7/5
f 298/7/5 294/7/5 297/7/5
f 301/5/5 300/5/5 299/5/5
f 302/5/5 300/5/5 301/5/5
f 303/5/5 300/5/5 302/5/5
f 304/5/5 300/5/5 303/5/5
f 306/5/5 303/5/5 302/5/5
f 307/5/5 303/5/5 306/5/5
f 309/5/5 306/5/5 305/5/5
f 309/5/5 308/5/5 307/5/5
f 309/5/5 307/5/5 306/5/5
f 310/5/5 308/5/5 309/5/5
f 311/5/5 308/5/5 310/5/5
f 312/5/5 308/5/5 311/5/5
f 314/5/5 311/5/5 310/5/5
f 315/5/5 311/5/5 314/5/5
f 317/5/5 314/5/5 313/5/5
f 317/5/5 316/5/5 315/5/5
f 317/5/5 315/5/5 314/5/5
f 318/5/5 316/5/5 317/5/5
f 323/2/5 320/2/5 319/2/5
f 324/2/5 320/2/5 323/2/5
f 325/2/5 322/2/5 321/2/5
f 326/2/5 322/2/5 325/2/5
f 331/2/5 328/2/5 327/2/5
f 332/6/5 329/6/5 328/6/5
f 332/2/5 328/2/5 331/2/5
f 333/2/5 330/2/5 329/2/5
f 333/6/5 329/6/5 332/6/5
f 334/2/5 330/2/5 333/2/5
f 335/2/5 331/2/5 327/2/5
f 336/2/5 331/2/5 335/2/5
f 337/2/5 330/2/5 334/2/5
f 338/2/5 330/2/5 337/2/5
f 339/1/6 340/1/6 343/1/6
f 341/1/6 342/1/6 346/1/6
f 339/1/6 343/1/6 347/1/6
f 343/2/6 344/2/6 348/2/6
f 347/1/6 343/1/6 348/1/6
f 344/6/6 345/6/6 349/6/6
f 348/2/6 344/2/6 349/2/6
f 345/2/6 346/2/6 350/2/6
f 349/6/6 345/6/6 350/6/6
f 346/1/6 342/1/6 351/1/6
f 350/2/6 346/2/6 351/2/6
f 351/1/6 342/1/6 352/1/6
f 339/1/6 347/1/6 353/1/6
f 352/1/6 342/1/6 354/1/6
f 339/1/6 353/1/6 356/1/6
f 354/1/6 342/1/6 357/1/6
f 355/2/6 356/2/6 359/2/6
f 356/1/6 353/1/6 360/1/6
f 359/2/6 356/2/6 360/2/6
f 360/1/6 353/1/6 361/1/6
f 354/1/6 357/1/6 362/1/6
f 357/2/6 358/2/6 363/2/6
f 362/1/6 357/1/6 363/1/6
f 363/2/6 358/2/6 364/2/6
f 360/1/6 361/1/6 365/1/6
f 362/1/6 363/1/6 372/1/6
f 365/1/6 366/1/6 373/1/6
f 366/1/6 367/1/6 373/1/6
f 367/2/6 368/2/6 373/2/6
f 368/6/6 369/6/6 374/6/6
f 373/2/6 368/2/6 374/2/6
f 369/2/6 370/2/6 375/2/6
f 374/6/6 369/6/6 375/6/6
f 370/1/6 371/1/6 376/1/6
f 375/2/6 370/2/6 376/2/6
f 371/1/6 372/1/6 376/1/6
f 365/1/6 373/1/6 377/1/6
f 376/1/6 372/1/6 380/1/6
f 360/1/6 365/1/6 381/1/6
f 365/1/6 377/1/6 381/1/6
f 377/2/6 378/2/6 382/2/6
f 381/1/6 377/1/6 382/1/6
f 378/6/6 379/6/6 383/6/6
f 382/2/6 378/2/6 383/2/6
f 379/2/6 380/2/6 384/2/6
f 383/6/6 379/6/6 384/6/6
f 380/1/6 372/1/6 385/1/6
f 384/2/6 380/2/6 385/2/6
f 372/1/6 363/1/6 386/1/6
f 385/1/6 372/1/6 386/1/6
f 387/2/6 388/2/6 391/2/6
f 388/6/6 389/6/6 392/6/6
f 391/2/6 388/2/6 392/2/6
f 389/2/6 390/2/6 393/2/6
f 392/6/6 389/6/6 393/6/6
f 393/2/6 390/2/6 394/2/6
f 395/2/6 396/2/6 399/2/6
f 396/6/6 397/6/6 400/6/6
f 399/2/6 396/2/6 400/2/6
f 397/2/6 398/2/6 401/2/6
f 400/6/6 397/6/6 401/6/6
f 401/2/6 398/2/6 402/2/6
f 403/2/6 404/2/6 407/2/6
f 404/6/6 405/6/6 408/6/6
f 407/2/6 404/2/6 408/2/6
f 405/2/6 406/2/6 409/2/6
f 408/6/6 405/6/6 409/6/6
f 409/2/6 406/2/6 410/2/6
f 411/3/6 412/3/6 413/3/6
f 413/3/6 412/3/6 414/3/6
